<?xml version="1.0" ?><svg viewBox="0 0 64 64" fill="#fff"  xmlns="http://www.w3.org/2000/svg"><title/><g data-name="22-patient" id="_22-patient"><path d="M46,30h1a3,3,0,0,0,3-3h0a3,3,0,0,0-3-3h0V15H23v9h0a3,3,0,0,0-3,3h0a3,3,0,0,0,3,3h1" style="fill:none;stroke:#fff;stroke-linejoin:round;stroke-width:2px"/><path d="M24,28H46a0,0,0,0,1,0,0v3A11,11,0,0,1,35,42h0A11,11,0,0,1,24,31V28A0,0,0,0,1,24,28Z" style="fill:none;stroke:#fff;stroke-linejoin:round;stroke-width:2px"/><path d="M21,25l-2.209-2.209a6.329,6.329,0,0,1-.675-8.154l1.389-1.944a1.414,1.414,0,0,0,.114-1.455h0a3.753,3.753,0,0,1,1.56-4.972l.763-.416A19.621,19.621,0,0,1,36.73,4.209h0a20.118,20.118,0,0,0,12.4-.437L54,2l-3,8,6-1-2.921,4.381a4.4,4.4,0,0,0-.607,3.506h0a4.4,4.4,0,0,1-.833,3.814L49,25" style="fill:none;stroke:#fff;stroke-linejoin:round;stroke-width:2px"/><line style="fill:none;stroke:#fff;stroke-linejoin:round;stroke-width:2px" x1="24" x2="42" y1="32" y2="32"/><line style="fill:none;stroke:#fff;stroke-linejoin:round;stroke-width:2px" x1="25" x2="40" y1="36" y2="36"/><path d="M32,42v4l-9,3,2.6,2.926a12.563,12.563,0,0,0,3.234,2.606h0a12.576,12.576,0,0,0,12.33,0h0A12.563,12.563,0,0,0,44.4,51.926L47,49l-9-3V42" style="fill:none;stroke:#fff;stroke-linejoin:round;stroke-width:2px"/><path d="M23,49h0a13.323,13.323,0,0,0-5,10.4V63H52V59.4A13.323,13.323,0,0,0,47,49h0" style="fill:none;stroke:#fff;stroke-linejoin:round;stroke-width:2px"/><path d="M33,21h0a11.983,11.983,0,0,1-4.683,2.894L28,24" style="fill:none;stroke:#fff;stroke-linejoin:round;stroke-width:2px"/><path d="M37,21h0a11.983,11.983,0,0,0,4.683,2.894L42,24" style="fill:none;stroke:#fff;stroke-linejoin:round;stroke-width:2px"/><circle cx="56" cy="43" r="5" style="fill:none;stroke:#fff;stroke-linejoin:round;stroke-width:2px"/><line style="fill:none;stroke:#fff;stroke-linejoin:round;stroke-width:2px" x1="56" x2="56" y1="35" y2="38"/><line style="fill:none;stroke:#fff;stroke-linejoin:round;stroke-width:2px" x1="62.061" x2="59.939" y1="37.439" y2="39.561"/><line style="fill:none;stroke:#fff;stroke-linejoin:round;stroke-width:2px" x1="49.939" x2="52.061" y1="37.439" y2="39.561"/><line style="fill:none;stroke:#fff;stroke-linejoin:round;stroke-width:2px" x1="56" x2="56" y1="48" y2="51"/><line style="fill:none;stroke:#fff;stroke-linejoin:round;stroke-width:2px" x1="59.939" x2="62.061" y1="46.439" y2="48.561"/><line style="fill:none;stroke:#fff;stroke-linejoin:round;stroke-width:2px" x1="52.061" x2="49.939" y1="46.439" y2="48.561"/><line style="fill:none;stroke:#fff;stroke-linejoin:round;stroke-width:2px" x1="61" x2="64" y1="43" y2="43"/><line style="fill:none;stroke:#fff;stroke-linejoin:round;stroke-width:2px" x1="48" x2="51" y1="43" y2="43"/><line style="fill:none;stroke:#fff;stroke-linejoin:round;stroke-width:2px" x1="56" x2="58" y1="41" y2="41"/><line style="fill:none;stroke:#fff;stroke-linejoin:round;stroke-width:2px" x1="54" x2="56" y1="45" y2="45"/><circle cx="8" cy="8" r="5" style="fill:none;stroke:#fff;stroke-linejoin:round;stroke-width:2px"/><line style="fill:none;stroke:#fff;stroke-linejoin:round;stroke-width:2px" x1="8" x2="8" y2="3"/><line style="fill:none;stroke:#fff;stroke-linejoin:round;stroke-width:2px" x1="14.061" x2="11.939" y1="2.439" y2="4.561"/><line style="fill:none;stroke:#fff;stroke-linejoin:round;stroke-width:2px" x1="1.939" x2="4.061" y1="2.439" y2="4.561"/><line style="fill:none;stroke:#fff;stroke-linejoin:round;stroke-width:2px" x1="8" x2="8" y1="13" y2="16"/><line style="fill:none;stroke:#fff;stroke-linejoin:round;stroke-width:2px" x1="11.939" x2="14.061" y1="11.439" y2="13.561"/><line style="fill:none;stroke:#fff;stroke-linejoin:round;stroke-width:2px" x1="4.061" x2="1.939" y1="11.439" y2="13.561"/><line style="fill:none;stroke:#fff;stroke-linejoin:round;stroke-width:2px" x1="13" x2="16" y1="8" y2="8"/><line style="fill:none;stroke:#fff;stroke-linejoin:round;stroke-width:2px" x2="3" y1="8" y2="8"/><line style="fill:none;stroke:#fff;stroke-linejoin:round;stroke-width:2px" x1="8" x2="10" y1="6" y2="6"/><line style="fill:none;stroke:#fff;stroke-linejoin:round;stroke-width:2px" x1="6" x2="8" y1="10" y2="10"/><circle cx="12" cy="36" r="5" style="fill:none;stroke:#fff;stroke-linejoin:round;stroke-width:2px"/><line style="fill:none;stroke:#fff;stroke-linejoin:round;stroke-width:2px" x1="12" x2="12" y1="28" y2="31"/><line style="fill:none;stroke:#fff;stroke-linejoin:round;stroke-width:2px" x1="18.061" x2="15.939" y1="30.439" y2="32.561"/><line style="fill:none;stroke:#fff;stroke-linejoin:round;stroke-width:2px" x1="5.939" x2="8.061" y1="30.439" y2="32.561"/><line style="fill:none;stroke:#fff;stroke-linejoin:round;stroke-width:2px" x1="12" x2="12" y1="41" y2="44"/><line style="fill:none;stroke:#fff;stroke-linejoin:round;stroke-width:2px" x1="15.939" x2="18.061" y1="39.439" y2="41.561"/><line style="fill:none;stroke:#fff;stroke-linejoin:round;stroke-width:2px" x1="8.061" x2="5.939" y1="39.439" y2="41.561"/><line style="fill:none;stroke:#fff;stroke-linejoin:round;stroke-width:2px" x1="17" x2="20" y1="36" y2="36"/><line style="fill:none;stroke:#fff;stroke-linejoin:round;stroke-width:2px" x1="4" x2="7" y1="36" y2="36"/><line style="fill:none;stroke:#fff;stroke-linejoin:round;stroke-width:2px" x1="12" x2="14" y1="34" y2="34"/><line style="fill:none;stroke:#fff;stroke-linejoin:round;stroke-width:2px" x1="10" x2="12" y1="38" y2="38"/></g></svg>