<?xml version="1.0" ?><svg id="Layer_3" style="enable-background:new 0 0 64 64;" version="1.1" viewBox="0 0 64 64" fill="#fff" xml:space="preserve" xmlns="http://www.w3.org/2000/svg" xmlns:xlink="http://www.w3.org/1999/xlink"><g><path d="M63,46v-2h-6v-6h-2v6h-6v2h6v13.587c-2.27-2.267-5.01-3.89-8-4.784V40c0-8.271-6.729-15-15-15s-15,6.729-15,15v14.553   c-2.135,0.514-4.163,1.376-6,2.59V47h4v-2h-4v-4H9v4H5v2h4v11.68c-0.342,0.298-0.687,0.593-1.011,0.917L6.586,61H1v2h62v-2h-6V46   H63z M35.011,59.597c-0.541-0.541-1.116-1.033-1.707-1.499C35.813,56.725,38.618,56,41.5,56c4.564,0,8.855,1.776,12.085,5H36.414   L35.011,59.597z M19,40c0-7.168,5.832-13,13-13s13,5.832,13,13v14.329C43.856,54.118,42.688,54,41.5,54   c-3.548,0-6.989,0.988-10.001,2.842C28.519,55.002,25.09,54,21.5,54c-0.845,0-1.676,0.074-2.5,0.181V40z M21.5,56   c4.564,0,8.855,1.776,12.085,5H9.415C12.645,57.776,16.936,56,21.5,56z"/><path d="M24,39h2.764C27.526,39.381,28,40.147,28,41h2c0-1.039-0.375-2.007-1.024-2.76C29.599,37.69,30,36.895,30,36   c0-1.654-1.346-3-3-3h-4c-0.553,0-1,0.447-1,1v7h2V39z M24,35h3c0.552,0,1,0.448,1,1s-0.448,1-1,1h-3V35z"/><path d="M36,39h3c1.654,0,3-1.346,3-3s-1.346-3-3-3h-4c-0.553,0-1,0.447-1,1v7h2V39z M36,35h3c0.552,0,1,0.448,1,1s-0.448,1-1,1h-3   V35z"/><rect height="8" width="2" x="31" y="33"/><path d="M21.858,13.99l2.903,0.415l-1.69,4.224c-0.148,0.372-0.062,0.796,0.222,1.079l1,1C24.484,20.898,24.74,21,25,21   c0.125,0,0.251-0.023,0.371-0.071l4.224-1.69l0.414,2.903C30.08,22.634,30.502,23,31,23h2c0.498,0,0.92-0.366,0.99-0.858   l0.415-2.903l4.224,1.69C38.749,20.977,38.875,21,39,21c0.26,0,0.516-0.102,0.707-0.293l1-1c0.283-0.283,0.37-0.707,0.222-1.079   l-1.69-4.224l2.903-0.415C42.634,13.919,43,13.498,43,13v-2c0-0.498-0.366-0.919-0.858-0.99l-2.903-0.415l1.69-4.224   C41.077,5,40.99,4.576,40.707,4.293l-1-1c-0.284-0.283-0.709-0.369-1.078-0.222l-4.224,1.69L33.99,1.858C33.92,1.366,33.498,1,33,1   h-2c-0.498,0-0.92,0.366-0.99,0.858l-0.414,2.903l-4.224-1.69c-0.37-0.147-0.795-0.062-1.078,0.222l-1,1   C23.01,4.576,22.923,5,23.071,5.372l1.69,4.224l-2.903,0.415C21.366,10.081,21,10.502,21,11v2   C21,13.498,21.366,13.919,21.858,13.99z M25.241,18.827l-0.067-0.067l1.098-2.746c0.468,0.666,1.049,1.246,1.715,1.715   L25.241,18.827z M38.759,18.827l-2.742-1.097c0.665-0.467,1.247-1.045,1.714-1.709l1.095,2.739L38.759,18.827z M38.759,5.173   l0.067,0.067l-1.098,2.746c-0.468-0.666-1.049-1.247-1.714-1.715L38.759,5.173z M25.241,5.173l2.745,1.098   C27.321,6.74,26.74,7.32,26.272,7.986l-1.098-2.746L25.241,5.173z M23,11.867l6.142-0.877L28.858,9.01l-0.952,0.136   c0.658-0.941,1.625-1.653,2.757-1.966c0.383-0.106,0.667-0.429,0.724-0.822L31.867,3h0.266c0.567,3.958,0.661,4.248,1.355,4.225   c1.068,0.333,1.978,1.022,2.607,1.921L35.142,9.01l-0.283,1.979L41,11.867v0.266l-6.142,0.877l0.283,1.979l0.955-0.136   c-0.657,0.941-1.623,1.652-2.761,1.966c-0.383,0.106-0.667,0.429-0.724,0.822L32.133,21h-0.266l-0.479-3.358   c-0.057-0.394-0.341-0.716-0.724-0.822c-1.132-0.313-2.099-1.025-2.757-1.966l0.952,0.136l0.283-1.979L23,12.133V11.867z"/><rect height="2" width="2" x="30" y="8"/><rect height="2" width="2" x="32" y="14"/><path d="M47.833,24.753l-1.54,1.54l1.414,1.414l1.54-1.54c0.524,0.348,1.116,0.602,1.753,0.732V29h2v-2.101   c0.637-0.13,1.229-0.384,1.753-0.732l1.54,1.54l1.414-1.414l-1.54-1.54c0.348-0.524,0.602-1.116,0.732-1.753H59v-2h-2.101   c-0.13-0.637-0.384-1.229-0.732-1.753l1.54-1.54l-1.414-1.414l-1.54,1.54c-0.524-0.348-1.116-0.602-1.753-0.732V15h-2v2.101   c-0.637,0.13-1.229,0.384-1.753,0.732l-1.54-1.54l-1.414,1.414l1.54,1.54c-0.348,0.524-0.602,1.116-0.732,1.753H45v2h2.101   C47.231,23.637,47.485,24.229,47.833,24.753z M50.293,21.707l1.414-1.414l-0.992-0.992C51.106,19.113,51.538,19,52,19   s0.894,0.113,1.285,0.301l-0.992,0.992l1.414,1.414l0.992-0.992C54.887,21.106,55,21.538,55,22s-0.113,0.894-0.301,1.285   l-0.992-0.992l-1.414,1.414l0.992,0.992C52.894,24.887,52.462,25,52,25s-0.894-0.113-1.285-0.301l0.992-0.992l-1.414-1.414   l-0.992,0.992C49.113,22.894,49,22.462,49,22s0.113-0.894,0.301-1.285L50.293,21.707z"/><path d="M7.833,24.753l-1.54,1.54l1.414,1.414l1.54-1.54c0.524,0.348,1.116,0.602,1.753,0.732V29h2v-2.101   c0.637-0.13,1.229-0.384,1.753-0.732l1.54,1.54l1.414-1.414l-1.54-1.54c0.348-0.524,0.602-1.116,0.732-1.753H19v-2h-2.101   c-0.13-0.637-0.384-1.229-0.732-1.753l1.54-1.54l-1.414-1.414l-1.54,1.54c-0.524-0.348-1.116-0.602-1.753-0.732V15h-2v2.101   c-0.637,0.13-1.229,0.384-1.753,0.732l-1.54-1.54l-1.414,1.414l1.54,1.54C7.485,19.771,7.231,20.363,7.101,21H5v2h2.101   C7.231,23.637,7.485,24.229,7.833,24.753z M10.293,21.707l1.414-1.414l-0.992-0.992C11.106,19.113,11.538,19,12,19   s0.894,0.113,1.285,0.301l-0.992,0.992l1.414,1.414l0.992-0.992C14.887,21.106,15,21.538,15,22s-0.113,0.894-0.301,1.285   l-0.992-0.992l-1.414,1.414l0.992,0.992C12.894,24.887,12.462,25,12,25s-0.894-0.113-1.285-0.301l0.992-0.992l-1.414-1.414   l-0.992,0.992C9.113,22.894,9,22.462,9,22s0.113-0.894,0.301-1.285L10.293,21.707z"/></g></svg>