<?xml version="1.0" ?><svg viewBox="0 0 512 512" fill="#fff" xmlns="http://www.w3.org/2000/svg"><g data-name="/ OUTLINE" id="_OUTLINE"><path d="M256.94434,216H264V200h-7.05566a6.47218,6.47218,0,0,1-5.17774-10.35547l18.6333-24.84473-12.7998-9.5996L238.96729,180.044A22.47191,22.47191,0,0,0,256.94434,216Z"/><rect height="80" width="16" x="128" y="416"/><path d="M256,248a16.01833,16.01833,0,0,1-16-16H224a32,32,0,0,0,64,0H272A16.01833,16.01833,0,0,1,256,248Z"/><path d="M232,176v-8a24,24,0,0,0-48,0v8h16v-8a8,8,0,0,1,16,0v8Z"/><path d="M304,144a24.02718,24.02718,0,0,0-24,24v8h16v-8a8,8,0,0,1,16,0v8h16v-8A24.02718,24.02718,0,0,0,304,144Z"/><path d="M446.80176,412.99121a30.83324,30.83324,0,0,0-.00049-43.9375,31.54029,31.54029,0,0,0-44.18945,0L400,371.63477l-2.61133-2.58106a31.54089,31.54089,0,0,0-44.18994,0,30.83266,30.83266,0,0,0,0,43.9375L400,459.24805ZM360,391.02148a14.79664,14.79664,0,0,1,4.4458-10.58886,15.48724,15.48724,0,0,1,21.69531,0L400,394.13086l13.85938-13.69824a15.48543,15.48543,0,0,1,21.69482,0,14.83533,14.83533,0,0,1,0,21.17968L400,436.752,364.44629,401.6123A14.79792,14.79792,0,0,1,360,391.02148Z"/><path d="M400,304a95.66582,95.66582,0,0,0-62.58276,23.137L320,322.0144V285.14648a87.955,87.955,0,0,0,46.7417-63.57324l12.437-6.21875A37.66655,37.66655,0,0,0,368,144.42676V82.00708A68.17655,68.17655,0,0,0,400,24V16H208a64.07239,64.07239,0,0,0-64,64v64.42676a37.66655,37.66655,0,0,0-11.17871,70.92773l12.43713,6.21875A87.95437,87.95437,0,0,0,192,285.14648V322.0144l-89.22852,26.24341a87.8336,87.8336,0,0,0-59.16357,58.17676L16.36426,493.61426l15.27148,4.77148,27.24365-87.17969a71.86628,71.86628,0,0,1,48.40674-47.59863l89.74414-26.39551,2.541,3.26661A70.95374,70.95374,0,0,0,248,367.636V448h16V367.636a70.95345,70.95345,0,0,0,48.42822-27.1565l2.54151-3.26758,9.949,2.92627a97.09038,97.09038,0,0,0-10.44653,16.22022l14.24609,7.2832a80.02072,80.02072,0,1,1-7.77954,48.61084l9.40454,9.40479,11.31348-11.31446L312,380.68652l-29.65674,29.65625,11.31348,11.31446,10.94433-10.94458A95.9993,95.9993,0,1,0,400,304ZM144,203.05566l-4.02344-2.01171A21.66365,21.66365,0,0,1,144,160.75659ZM352,125.168l-65.83667-20.25733,60.9104-14.2124c1.67175-.39013,3.31055-.84961,4.92627-1.35351ZM384,181.666A21.54858,21.54858,0,0,1,372.02344,201.044L368,203.05566V160.75659A21.70166,21.70166,0,0,1,384,181.666ZM160,80a48.054,48.054,0,0,1,48-48H383.39941A52.24072,52.24072,0,0,1,343.438,75.11621L160,117.918ZM304,325.25513l-4.20117,5.40112a55.48587,55.48587,0,0,1-87.59815-.001L208,325.25488V291.82275l16.41016,6.312a87.85447,87.85447,0,0,0,63.18017,0L304,291.82275Zm1.84619-51.2854-23.99951,9.23144a71.87063,71.87063,0,0,1-51.69287,0l-24.00049-9.23144A72.42945,72.42945,0,0,1,160,206.76953v-72.4209l95.2207-22.218L352,141.90869v64.86084A72.42918,72.42918,0,0,1,305.84619,273.96973Z"/></g></svg>